<?xml version="1.0" encoding="UTF-8"?>
<svg xmlns="http://www.w3.org/2000/svg" xmlns:xlink="http://www.w3.org/1999/xlink" width="384" height="128" viewBox="0 0 384 128">
<rect x="-38.4" y="-12.8" width="460.8" height="153.6" fill="rgb(100%, 100%, 100%)" fill-opacity="1"/>
<path fill="none" stroke-width="2" stroke-linecap="butt" stroke-linejoin="miter" stroke="rgb(0%, 0%, 0%)" stroke-opacity="1" stroke-miterlimit="10" d="M 59.175781 44.742188 L 71.769531 87.425781 L 12.800781 12.800781 L 47.035156 106.1875 L 95.394531 22.074219 L 15.742188 79.398438 L 84.136719 72.664062 L 41.519531 85.109375 L 59.175781 44.742188 "/>
<path fill="none" stroke-width="2" stroke-linecap="butt" stroke-linejoin="miter" stroke="rgb(0%, 0%, 0%)" stroke-opacity="1" stroke-miterlimit="10" d="M 172.117188 67.285156 L 233.875 12.800781 L 167.101562 20.683594 L 169.492188 85.707031 L 243.199219 89.417969 L 140.800781 37.84375 L 164.800781 12.800781 L 243.199219 115.199219 L 172.117188 67.285156 "/>
<path fill="none" stroke-width="2" stroke-linecap="butt" stroke-linejoin="miter" stroke="rgb(0%, 0%, 0%)" stroke-opacity="1" stroke-miterlimit="10" d="M 292.195312 115.199219 L 272.375 12.800781 L 320.0625 99.210938 L 316.726562 32.554688 L 347.246094 107.089844 L 277.183594 87.402344 L 278.328125 34.417969 L 326.261719 19.003906 L 292.195312 115.199219 "/>
</svg>
