<?xml version="1.0" encoding="UTF-8"?>
<svg xmlns="http://www.w3.org/2000/svg" xmlns:xlink="http://www.w3.org/1999/xlink" width="384" height="128" viewBox="0 0 384 128">
<rect x="-38.4" y="-12.8" width="460.8" height="153.6" fill="rgb(100%, 100%, 100%)" fill-opacity="1"/>
<path fill="none" stroke-width="2" stroke-linecap="butt" stroke-linejoin="miter" stroke="rgb(0%, 0%, 0%)" stroke-opacity="1" stroke-miterlimit="10" d="M 59.175781 44.742188 L 71.769531 44.742188 L 71.769531 87.425781 L 12.800781 87.425781 L 12.800781 12.800781 L 47.035156 12.800781 L 47.035156 106.1875 L 95.394531 106.1875 L 95.394531 22.074219 L 15.742188 22.074219 L 15.742188 79.398438 L 84.136719 79.398438 L 84.136719 72.664062 L 41.519531 72.664062 L 41.519531 85.109375 L 44.117188 85.109375 L 44.117188 67.285156 L 105.875 67.285156 L 105.875 12.800781 L 39.101562 12.800781 L 39.101562 20.683594 L 41.492188 20.683594 L 41.492188 44.742188 L 59.175781 44.742188 "/>
<path fill="none" stroke-width="2" stroke-linecap="butt" stroke-linejoin="miter" stroke="rgb(0%, 0%, 0%)" stroke-opacity="1" stroke-miterlimit="10" d="M 213.707031 115.199219 L 213.707031 89.417969 L 140.800781 89.417969 L 140.800781 37.84375 L 164.800781 37.84375 L 164.800781 12.800781 L 243.199219 12.800781 L 243.199219 115.199219 L 144.375 115.199219 L 144.375 12.800781 L 192.0625 12.800781 L 192.0625 99.210938 L 188.726562 99.210938 L 188.726562 32.554688 L 219.246094 32.554688 L 219.246094 107.089844 L 149.183594 107.089844 L 149.183594 87.402344 L 150.328125 87.402344 L 150.328125 34.417969 L 213.707031 34.417969 L 213.707031 115.199219 "/>
<path fill="none" stroke-width="2" stroke-linecap="butt" stroke-linejoin="miter" stroke="rgb(0%, 0%, 0%)" stroke-opacity="1" stroke-miterlimit="10" d="M 326.261719 19.003906 L 306.015625 19.003906 L 306.015625 56.035156 L 328.183594 56.035156 L 328.183594 88.753906 L 295.582031 88.753906 L 295.582031 115.199219 L 371.199219 115.199219 L 371.199219 112.320312 L 268.800781 112.320312 L 268.800781 112.746094 L 317.042969 112.746094 L 317.042969 12.800781 L 268.800781 12.800781 L 268.800781 94.714844 L 321.226562 94.714844 L 321.226562 106.546875 L 354.757812 106.546875 L 354.757812 115.199219 L 319.988281 115.199219 L 319.988281 76.71875 L 316.78125 76.71875 L 316.78125 19.003906 L 326.261719 19.003906 "/>
</svg>
